<svg xmlns="http://www.w3.org/2000/svg" width="112.826" height="21" viewBox="0 0 112.826 21">
  <g id="Grupo_19406" data-name="Grupo 19406" transform="translate(-232.27 -531.555)">
    <path id="Trazado_200" data-name="Trazado 200" d="M302.586,565.937l-4.238-.8-1.722-.326-6.385-1.206a1.507,1.507,0,0,0-1.794,1.484v7.233l1.722-.326v-6.654l6.457,1.217,1.722.326,3.745.706v10l-1.837-2.03-.023-.023a1.533,1.533,0,0,0-.692-.328l-8.573-1.618-2.45.462a1.5,1.5,0,0,0,1.156,1.041l9.471,1.792,2.138,2.378.066.059a1.488,1.488,0,0,0,.95.337,1.565,1.565,0,0,0,.647-.143,1.474,1.474,0,0,0,.867-1.367V567.417A1.5,1.5,0,0,0,302.586,565.937Z" transform="translate(-47.56 -27.109)" fill="#48d890"/>
    <path id="Trazado_201" data-name="Trazado 201" d="M250.189,531.936a1.679,1.679,0,0,0-1.369-.353l-15.2,2.871a1.658,1.658,0,0,0-1.353,1.629v13.222a1.646,1.646,0,0,0,.959,1.5,1.7,1.7,0,0,0,.706.154,1.634,1.634,0,0,0,1.054-.385l2.729-3.016,3.24-.613a.291.291,0,0,1-.014-.041,1.337,1.337,0,0,1-.057-.4v-1.3l-3.518.665a1.607,1.607,0,0,0-.753.351l-2.62,2.9v-12.99l15.071-2.848v10.378l-6.457,1.22v1.448l.8.152,6.03-1.14a1.656,1.656,0,0,0,1.351-1.629V533.212A1.638,1.638,0,0,0,250.189,531.936Z" fill="#271c84"/>
    <path id="Trazado_202" data-name="Trazado 202" d="M290.968,620.062l-2.45.462a.3.3,0,0,1-.014-.041,1.339,1.339,0,0,1-.057-.4v-1.3l1.722-.326v1.448Z" transform="translate(-47.56 -73.575)" fill="#48d890"/>
    <path id="Trazado_203" data-name="Trazado 203" d="M536.544,588.167a6.1,6.1,0,0,1-3.081-.783,5.648,5.648,0,0,1-2.164-2.213,6.813,6.813,0,0,1-.795-3.363,6.731,6.731,0,0,1,.807-3.363,5.713,5.713,0,0,1,2.189-2.213,6.167,6.167,0,0,1,3.094-.783,6.1,6.1,0,0,1,3.081.783,5.657,5.657,0,0,1,2.164,2.213,6.817,6.817,0,0,1,.795,3.363,6.73,6.73,0,0,1-.807,3.363,5.712,5.712,0,0,1-2.189,2.213A6.168,6.168,0,0,1,536.544,588.167Zm0-1.761a3.9,3.9,0,0,0,1.956-.513,3.834,3.834,0,0,0,1.467-1.541,5.239,5.239,0,0,0,.563-2.543,5.336,5.336,0,0,0-.55-2.543,3.755,3.755,0,0,0-1.455-1.541,3.854,3.854,0,0,0-1.932-.514,3.9,3.9,0,0,0-1.956.514,3.829,3.829,0,0,0-1.467,1.541,6.032,6.032,0,0,0,0,5.087,3.857,3.857,0,0,0,1.455,1.541A3.786,3.786,0,0,0,536.544,586.406Z" transform="translate(-252.483 -37.161)" fill="#271c84"/>
    <path id="Trazado_204" data-name="Trazado 204" d="M624.589,588.167a6.142,6.142,0,0,1-3.118-.795,5.71,5.71,0,0,1-2.177-2.226,7.409,7.409,0,0,1,0-6.676,5.713,5.713,0,0,1,2.177-2.225,6.14,6.14,0,0,1,3.118-.795,5.828,5.828,0,0,1,3.632,1.125,4.9,4.9,0,0,1,1.871,3.008h-2.1a2.7,2.7,0,0,0-1.2-1.749,3.975,3.975,0,0,0-2.225-.624,3.8,3.8,0,0,0-3.4,2.054,6.03,6.03,0,0,0,0,5.087,3.914,3.914,0,0,0,1.467,1.553,3.78,3.78,0,0,0,1.932.526,3.975,3.975,0,0,0,2.225-.624,2.706,2.706,0,0,0,1.2-1.773h2.1a4.857,4.857,0,0,1-1.859,2.984A5.792,5.792,0,0,1,624.589,588.167Z" transform="translate(-326.98 -37.161)" fill="#271c84"/>
    <path id="Trazado_205" data-name="Trazado 205" d="M799.3,588.167a6.622,6.622,0,0,1-3.253-.783,5.66,5.66,0,0,1-2.225-2.2,6.509,6.509,0,0,1-.807-3.277,6.924,6.924,0,0,1,.795-3.35,5.771,5.771,0,0,1,2.2-2.287,6.468,6.468,0,0,1,3.314-.819,6.249,6.249,0,0,1,3.155.783,5.625,5.625,0,0,1,2.14,2.14,6.01,6.01,0,0,1,.77,3.02c0,.18,0,.367-.012.563s-.021.4-.037.611h-9.22a3.157,3.157,0,0,0,.99,2.226,3.112,3.112,0,0,0,2.164.807,2.845,2.845,0,0,0,1.6-.428,2.652,2.652,0,0,0,.966-1.113h3.179a5.769,5.769,0,0,1-1.137,2.091,5.605,5.605,0,0,1-1.956,1.48A6.19,6.19,0,0,1,799.3,588.167Zm.024-10.173a3.335,3.335,0,0,0-2.03.648,3,3,0,0,0-1.125,1.969h6.04a2.641,2.641,0,0,0-.88-1.907A2.929,2.929,0,0,0,799.323,577.993Z" transform="translate(-474.722 -37.161)" fill="#48d890"/>
    <path id="Trazado_206" data-name="Trazado 206" d="M887.933,564.309a5.7,5.7,0,0,1-3.057-.831,5.951,5.951,0,0,1-2.128-2.274,6.76,6.76,0,0,1-.783-3.277,6.689,6.689,0,0,1,.783-3.265,5.888,5.888,0,0,1,2.128-2.25,5.76,5.76,0,0,1,3.057-.819,5.3,5.3,0,0,1,2.4.513,4.323,4.323,0,0,1,1.663,1.443v-6.28h3.13v16.746h-2.788l-.342-1.736a5.571,5.571,0,0,1-1.553,1.418A4.625,4.625,0,0,1,887.933,564.309Zm.66-2.739a3.276,3.276,0,0,0,2.482-1.015,3.994,3.994,0,0,0,0-5.209,3.543,3.543,0,0,0-4.952-.012,3.556,3.556,0,0,0-.978,2.592,3.64,3.64,0,0,0,.978,2.617A3.265,3.265,0,0,0,888.593,561.57Z" transform="translate(-550.028 -13.303)" fill="#48d890"/>
    <path id="Trazado_207" data-name="Trazado 207" d="M430.924,564.208V547.15h5.239q4.508,0,6.64,2.29a8.867,8.867,0,0,1,2.132,6.287,8.714,8.714,0,0,1-2.132,6.2q-2.133,2.279-6.64,2.278Zm2.047-1.706h3.144a8.186,8.186,0,0,0,3.96-.816,4.657,4.657,0,0,0,2.108-2.339,9.394,9.394,0,0,0,.634-3.619,9.633,9.633,0,0,0-.634-3.68,4.71,4.71,0,0,0-2.108-2.364,8.091,8.091,0,0,0-3.96-.828h-3.144Z" transform="translate(-168.18 -13.203)" fill="#271c84"/>
    <path id="Trazado_208" data-name="Trazado 208" d="M708.213,564.208V547.15h6.263a7.253,7.253,0,0,1,3.375.694,4.682,4.682,0,0,1,1.986,1.876,5.3,5.3,0,0,1,.658,2.62,5.229,5.229,0,0,1-.816,2.851,4.631,4.631,0,0,1-2.546,1.876l3.533,7.14h-3.582l-3.168-6.726h-2.583v6.726Zm3.119-9.017h2.949a3.064,3.064,0,0,0,2.291-.755,2.751,2.751,0,0,0,.731-2,2.661,2.661,0,0,0-.719-1.949,3.159,3.159,0,0,0-2.327-.731h-2.924Z" transform="translate(-402.93 -13.203)" fill="#48d890"/>
  </g>
</svg>
